<svg width="167" height="57" viewBox="0 0 167 57" fill="none" xmlns="http://www.w3.org/2000/svg">
<g clip-path="url(#clip0_87_328)">
<path d="M66.9844 22.4711V9.7207H68.9475V22.4711H66.9844Z" fill="#262626"/>
<path d="M77.3357 22.5432L71.9688 9.7207H74.1438L78.2819 19.7811L82.4201 9.7207H84.5386L79.1929 22.5432H77.3357Z" fill="#262626"/>
<path d="M87.4453 22.4711V9.72073H91.8518C93.6504 9.64756 95.4068 10.2886 96.7526 11.5092C97.3582 12.1047 97.8398 12.8187 98.1688 13.6087C98.4978 14.3987 98.6674 15.2483 98.6674 16.1067C98.6674 16.9652 98.4978 17.8148 98.1688 18.6048C97.8398 19.3947 97.3582 20.1088 96.7526 20.7042C95.4059 21.921 93.6482 22.5547 91.8518 22.4711H87.4453ZM89.4085 20.6321H91.6682C92.9951 20.7172 94.3037 20.2812 95.3262 19.4133C95.7684 18.991 96.1155 18.4756 96.3435 17.9028C96.5715 17.3301 96.675 16.7135 96.6467 16.0959C96.6749 15.4794 96.5713 14.8639 96.3433 14.2923C96.1153 13.7207 95.7682 13.2066 95.3262 12.7857C94.3044 11.9159 92.996 11.4773 91.6682 11.5597H89.4085V20.6321Z" fill="#262626"/>
<path d="M68.8608 43.4574C67.6594 42.1823 66.9883 40.4815 66.9883 38.712C66.9883 36.9425 67.6594 35.2418 68.8608 33.9667C69.4812 33.3455 70.2184 32.8591 71.0279 32.5369C71.8375 32.2146 72.7025 32.0632 73.5709 32.0916C74.7547 32.0712 75.9232 32.367 76.9606 32.9498V34.9691C75.9564 34.3032 74.7823 33.9546 73.5851 33.9667C72.6716 33.9899 71.7845 34.2843 71.0323 34.8139C70.28 35.3436 69.6951 36.0856 69.3491 36.9492C69.003 37.8128 68.9108 38.7607 69.0837 39.677C69.2566 40.5933 69.687 41.4383 70.3225 42.1088C70.7611 42.5495 71.2825 42.895 71.8554 43.1243C72.4282 43.3536 73.0406 43.462 73.6557 43.4429C74.9433 43.4883 76.2064 43.0753 77.2289 42.2746V44.3011C76.1299 44.9972 74.8568 45.3529 73.5639 45.3252C72.6979 45.3475 71.8362 45.1939 71.0288 44.8732C70.2214 44.5526 69.4845 44.0713 68.8608 43.4574Z" fill="#262626"/>
<path d="M81.0759 43.9549C80.6457 43.5162 80.3044 42.9951 80.0715 42.4215C79.8386 41.848 79.7188 41.2332 79.7188 40.6122C79.7188 39.9913 79.8386 39.3765 80.0715 38.8029C80.3044 38.2294 80.6457 37.7083 81.0759 37.2696C82.0175 36.3883 83.2484 35.8994 84.5256 35.8994C85.8028 35.8994 87.0337 36.3883 87.9752 37.2696C88.4168 37.6977 88.766 38.2151 89.0007 38.7888C89.2353 39.3624 89.3503 39.9798 89.3381 40.6014C89.3494 41.2255 89.2349 41.8452 89.0016 42.4221C88.7684 42.999 88.4214 43.5208 87.9823 43.9549C87.0385 44.8316 85.8085 45.3174 84.5327 45.3174C83.2568 45.3174 82.0268 44.8316 81.083 43.9549H81.0759ZM86.5841 42.7289C87.1098 42.1534 87.4021 41.3957 87.4021 40.6086C87.4021 39.8216 87.1098 39.0639 86.5841 38.4884C86.3192 38.2088 86.0005 37.9882 85.648 37.8405C85.2956 37.6928 84.917 37.6212 84.5362 37.6302C83.7627 37.6302 83.0209 37.944 82.4739 38.5026C81.927 39.0611 81.6197 39.8187 81.6197 40.6086C81.6197 41.3986 81.927 42.1561 82.4739 42.7147C83.0209 43.2733 83.7627 43.5871 84.5362 43.5871C84.917 43.596 85.2956 43.5244 85.648 43.3767C86.0005 43.229 86.3192 43.0085 86.5841 42.7289Z" fill="#262626"/>
<path d="M94.2833 45.0799H92.3555V36.1374H94.2833V37.3201C94.6851 36.8569 95.1804 36.4882 95.735 36.2392C96.2897 35.9902 96.8906 35.8669 97.4964 35.8777C99.5655 35.8777 100.745 37.284 100.745 39.5918V45.0583H98.8169V40.0101C98.8169 38.2648 97.906 37.6951 96.762 37.6951C96.2659 37.7153 95.7819 37.8568 95.3505 38.1078C94.9192 38.3588 94.5532 38.7119 94.2833 39.1374V45.0799Z" fill="#262626"/>
<path d="M103.664 44.4092V42.5486C104.716 43.2731 105.962 43.6483 107.23 43.6231C108.445 43.6231 109.158 43.2265 109.158 42.5702C109.158 42.2241 108.946 42.0221 108.621 41.8491C108.351 41.7364 108.072 41.6448 107.788 41.575L106.701 41.301C104.702 40.7961 103.756 40.0678 103.756 38.5172C103.756 36.9667 105.126 35.8922 107.463 35.8922C108.59 35.832 109.71 36.1022 110.69 36.671V38.474C109.732 37.8986 108.645 37.5856 107.534 37.5653C106.34 37.5653 105.733 37.9691 105.733 38.5461C105.733 38.8922 105.966 39.0942 106.291 39.2673C106.563 39.3747 106.842 39.4662 107.124 39.5413L108.141 39.7577C110.14 40.212 111.142 41.2 111.142 42.5847C111.142 44.2001 109.603 45.2963 107.322 45.2963C106.047 45.3436 104.782 45.0371 103.664 44.4092Z" fill="#262626"/>
<path d="M120.524 36.1373H122.445V45.0799H120.524V43.8827C120.12 44.3436 119.625 44.7109 119.071 44.9597C118.516 45.2085 117.916 45.3331 117.311 45.3251C115.242 45.3251 114.062 43.926 114.062 41.611V36.1373H115.99V41.1856C115.99 42.938 116.901 43.5005 118.038 43.5005C118.536 43.4815 119.021 43.3405 119.454 43.0894C119.886 42.8384 120.253 42.4847 120.524 42.0582V36.1373Z" fill="#262626"/>
<path d="M126.062 42.9667V32.3438H127.99V42.4402C127.99 43.1614 128.308 43.5364 128.951 43.5364C129.197 43.5368 129.44 43.4749 129.657 43.3561V45.0508C129.214 45.2571 128.731 45.3559 128.245 45.3393C127.016 45.3249 126.062 44.6614 126.062 42.9667Z" fill="#262626"/>
<path d="M133.121 37.8684H131.25V36.1376H133.121V33.5342H135.049V36.1376H137.817V37.8684H135.049V42.0729C135.049 43.097 135.494 43.5152 136.426 43.5152C136.887 43.5201 137.341 43.4059 137.747 43.1835V44.8783C137.153 45.2168 136.476 45.3698 135.798 45.3182C134.159 45.3182 133.121 44.3879 133.121 42.6426V37.8684Z" fill="#262626"/>
<path d="M140.824 33.296C140.82 33.0515 140.887 32.8113 141.017 32.6058C141.147 32.4003 141.334 32.2389 141.553 32.142C141.773 32.0452 142.016 32.0172 142.252 32.0618C142.487 32.1063 142.704 32.2213 142.876 32.3921C143.047 32.563 143.164 32.782 143.214 33.0213C143.263 33.2606 143.241 33.5094 143.151 33.7361C143.062 33.9629 142.908 34.1572 142.71 34.2946C142.512 34.4319 142.278 34.5061 142.039 34.5075C141.881 34.5104 141.724 34.4812 141.577 34.4217C141.431 34.3622 141.297 34.2735 141.184 34.1608C141.071 34.0481 140.981 33.9137 140.919 33.7652C140.858 33.6167 140.825 33.4572 140.824 33.296ZM141.072 45.08V36.1374H143.006V45.08H141.072Z" fill="#262626"/>
<path d="M148.729 45.0799H146.801V36.1374H148.729V37.3201C149.13 36.8569 149.626 36.4882 150.18 36.2392C150.735 35.9902 151.336 35.8669 151.942 35.8777C154.011 35.8777 155.183 37.284 155.183 39.5918V45.0583H153.262V40.0101C153.262 38.2648 152.351 37.6951 151.207 37.6951C150.711 37.7153 150.227 37.8568 149.796 38.1078C149.365 38.3588 148.999 38.7119 148.729 39.1374V45.0799Z" fill="#262626"/>
<path d="M165.397 36.1373H167.317V44.2794C167.359 44.9148 167.253 45.5513 167.008 46.1367C166.762 46.7221 166.384 47.2397 165.905 47.6473C164.917 48.4451 163.683 48.8591 162.424 48.8156C161.233 48.8557 160.053 48.5799 158.999 48.0151V46.2122C159.97 46.8015 161.082 47.1036 162.212 47.0848C164.069 47.0848 165.425 46.2266 165.425 44.3155V43.6448C165.047 44.1101 164.568 44.479 164.027 44.7219C163.485 44.9648 162.895 45.075 162.304 45.0438C161.731 45.0628 161.162 44.9539 160.635 44.7247C160.108 44.4955 159.636 44.1515 159.253 43.7169C158.451 42.8321 158.02 41.6622 158.052 40.4572C158.02 39.2608 158.452 38.0998 159.253 37.2263C159.637 36.7928 160.109 36.4496 160.636 36.2205C161.162 35.9914 161.731 35.8818 162.304 35.8994C162.896 35.8632 163.488 35.972 164.031 36.2166C164.574 36.4611 165.052 36.8345 165.425 37.3056L165.397 36.1373ZM165.397 41.7841V39.1807C165.145 38.7 164.767 38.3003 164.306 38.0264C163.844 37.7526 163.317 37.6154 162.784 37.6302C162.41 37.6197 162.038 37.6871 161.691 37.8285C161.344 37.9699 161.028 38.1821 160.764 38.4523C160.247 38.9915 159.957 39.7165 159.957 40.4716C159.957 41.2267 160.247 41.9517 160.764 42.4909C161.028 42.7611 161.344 42.9733 161.691 43.1147C162.038 43.2561 162.41 43.3236 162.784 43.313C163.314 43.3243 163.838 43.1879 164.298 42.9186C164.758 42.6492 165.138 42.2571 165.397 41.7841Z" fill="#262626"/>
<path d="M5.66544 33.9305C8.7426 33.9305 11.2371 31.383 11.2371 28.2405C11.2371 25.0979 8.7426 22.5504 5.66544 22.5504C2.58828 22.5504 0.09375 25.0979 0.09375 28.2405C0.09375 31.383 2.58828 33.9305 5.66544 33.9305Z" fill="#B4C6D3"/>
<path d="M27.9584 56.698C31.0356 56.698 33.5301 54.1505 33.5301 51.0079C33.5301 47.8654 31.0356 45.3179 27.9584 45.3179C24.8813 45.3179 22.3867 47.8654 22.3867 51.0079C22.3867 54.1505 24.8813 56.698 27.9584 56.698Z" fill="#B4C6D3"/>
<path d="M27.9584 11.1559C31.0356 11.1559 33.5301 8.60836 33.5301 5.46582C33.5301 2.32329 31.0356 -0.224243 27.9584 -0.224243C24.8813 -0.224243 22.3867 2.32329 22.3867 5.46582C22.3867 8.60836 24.8813 11.1559 27.9584 11.1559Z" fill="#B4C6D3"/>
<path d="M12.2475 50.0056C15.3246 50.0056 17.8192 47.4581 17.8192 44.3156C17.8192 41.173 15.3246 38.6255 12.2475 38.6255C9.17032 38.6255 6.67578 41.173 6.67578 44.3156C6.67578 47.4581 9.17032 50.0056 12.2475 50.0056Z" fill="#B4C6D3"/>
<path d="M43.7787 17.8051C46.8559 17.8051 49.3504 15.2575 49.3504 12.115C49.3504 8.97246 46.8559 6.42493 43.7787 6.42493C40.7016 6.42493 38.207 8.97246 38.207 12.115C38.207 15.2575 40.7016 17.8051 43.7787 17.8051Z" fill="#B4C6D3"/>
<path d="M12.2475 17.8051C15.3246 17.8051 17.8192 15.2575 17.8192 12.115C17.8192 8.97246 15.3246 6.42493 12.2475 6.42493C9.17032 6.42493 6.67578 8.97246 6.67578 12.115C6.67578 15.2575 9.17032 17.8051 12.2475 17.8051Z" fill="#B4C6D3"/>
<path d="M43.7787 50.0056C46.8559 50.0056 49.3504 47.4581 49.3504 44.3156C49.3504 41.173 46.8559 38.6255 43.7787 38.6255C40.7016 38.6255 38.207 41.173 38.207 44.3156C38.207 47.4581 40.7016 50.0056 43.7787 50.0056Z" fill="#B4C6D3"/>
</g>
<defs>
<clipPath id="clip0_87_328">
<rect width="167" height="57" fill="white"/>
</clipPath>
</defs>
</svg>
